# 3ds Max Wavefront OBJ Exporter v0.97b - (c)2007 guruware
# File Created: 25.08.2017 01:25:53

mtllib BNGL8045_v6_LOD2.mtl

#
# object not_clear_obj_0_v6
#

v  -60.7302 0.0257 91.2045
v  -60.9101 0.0112 91.2045
v  -60.8635 0.0000 91.3061
v  -60.7302 0.0112 91.3417
v  -60.4538 0.0112 91.3417
v  -60.4538 0.0257 91.2045
v  -60.7302 0.0257 91.0217
v  -60.4538 0.0257 91.0217
v  -60.9101 0.0112 91.0217
v  60.7910 0.0257 90.8391
v  60.9102 0.0112 91.0217
v  60.9101 0.0112 90.8391
v  60.7910 0.0257 91.0217
v  60.7910 0.0257 68.1994
v  60.9102 0.0113 68.1994
v  60.6415 0.0257 68.1994
v  60.6415 0.0257 90.8391
v  60.6415 0.0257 91.0217
v  -60.1042 0.0257 91.2045
v  -60.1042 0.0112 91.3417
v  -44.8011 0.0112 91.3417
v  -44.8011 0.0257 91.2045
v  -60.1042 0.0257 91.0217
v  -44.8011 0.0257 91.0217
v  -60.7302 0.0113 -91.3417
v  -60.7302 0.0257 -90.8890
v  -60.4538 0.0113 -91.3417
v  -60.4538 0.0257 -90.8890
v  -60.8635 0.0000 -91.2243
v  -60.9101 0.0113 -90.8890
v  -60.9101 0.0113 -90.3213
v  -60.7302 0.0257 -90.3213
v  -60.4538 0.0257 -90.3213
v  60.5109 0.0113 -91.3417
v  60.6415 0.0257 -90.8890
v  60.6415 0.0113 -91.3417
v  60.5109 0.0257 -90.8890
v  45.4066 0.0113 -91.3417
v  45.4066 0.0257 -90.8890
v  45.4066 0.0257 -90.3213
v  60.5109 0.0257 -90.3213
v  60.6415 0.0257 -90.3213
v  60.7910 0.0257 91.2045
v  60.6415 0.0257 91.2045
v  60.6415 0.0112 91.3417
v  60.7910 0.0112 91.3417
v  60.8792 0.0000 91.3061
v  60.9101 0.0112 91.2045
v  60.5109 0.0257 91.2045
v  45.4066 0.0257 91.2045
v  45.4066 0.0112 91.3417
v  60.5109 0.0112 91.3417
v  60.5109 0.0257 91.0217
v  45.4066 0.0257 91.0217
v  0.3359 0.0113 -91.3417
v  0.3359 0.0257 -90.8890
v  -44.8011 0.0113 -91.3417
v  -44.8011 0.0257 -90.8890
v  0.3359 0.0257 -90.3213
v  -44.8011 0.0257 -90.3213
v  60.7910 0.0257 0.6453
v  60.9101 0.0113 0.6453
v  60.7910 0.0257 -66.9781
v  60.9102 0.0113 -66.9781
v  60.6415 0.0257 -66.9781
v  60.6415 0.0257 0.6453
v  -60.7302 0.0257 68.1994
v  -60.9101 0.0112 90.8391
v  -60.7302 0.0257 90.8391
v  -60.9102 0.0113 68.1994
v  -60.4538 0.0257 90.8391
v  -60.4538 0.0257 68.1994
v  60.5109 0.0257 68.1994
v  45.4066 0.0257 68.1994
v  60.5109 0.0257 90.8391
v  45.4066 0.0257 90.8391
v  -60.1042 0.0257 68.1994
v  -60.1042 0.0257 90.8391
v  -44.8011 0.0257 90.8391
v  -44.8011 0.0257 68.1994
v  0.3359 0.0257 91.2045
v  0.3359 0.0112 91.3417
v  0.3359 0.0257 91.0217
v  -60.1042 0.0113 -91.3417
v  -60.1042 0.0257 -90.8890
v  -60.1042 0.0257 -90.3213
v  0.3359 0.0257 90.8391
v  0.3359 0.0257 68.1994
v  -60.9101 0.0113 -89.8257
v  -60.7302 0.0257 -89.8257
v  -60.9102 0.0113 -66.9781
v  -60.7302 0.0257 -66.9781
v  -60.4538 0.0257 -66.9781
v  -60.4538 0.0257 -89.8257
v  45.4066 0.0257 -89.8257
v  60.5109 0.0257 -89.8257
v  45.4066 0.0257 -66.9781
v  60.5109 0.0257 -66.9781
v  60.6415 0.0257 -89.8257
v  -44.8011 0.0257 -89.8257
v  0.3359 0.0257 -89.8257
v  -44.8011 0.0257 -66.9781
v  0.3359 0.0257 -66.9781
v  60.9101 0.0113 -90.8890
v  60.7910 0.0257 -90.3213
v  60.9102 0.0113 -90.3213
v  60.7910 0.0257 -90.8890
v  60.8792 0.0000 -91.2243
v  60.7910 0.0113 -91.3417
v  -60.1042 0.0257 -89.8257
v  -60.1042 0.0257 -66.9781
v  60.9101 0.0113 -89.8257
v  60.7910 0.0257 -89.8257
v  -60.9102 0.0113 0.6453
v  -60.7302 0.0257 0.6453
v  -60.4538 0.0257 0.6453
v  45.4066 0.0257 0.6453
v  60.5109 0.0257 0.6453
v  -44.8011 0.0257 0.6453
v  0.3359 0.0257 0.6453
v  -60.1042 0.0257 0.6453
# 121 vertices

vn -0.0439 0.9974 0.0575
vn -0.0867 0.9948 0.0530
vn -0.0953 0.9876 0.1249
vn -0.0436 0.9925 0.1142
vn 0.0000 0.9945 0.1049
vn 0.0000 0.9986 0.0525
vn -0.0401 0.9992 0.0000
vn 0.0000 1.0000 0.0000
vn -0.0801 0.9968 0.0000
vn 0.0603 0.9982 -0.0000
vn 0.1204 0.9927 0.0000
vn 0.1204 0.9927 -0.0000
vn 0.0603 0.9982 0.0000
vn -0.0000 0.9986 0.0525
vn -0.0000 0.9945 0.1049
vn -0.0000 1.0000 0.0000
vn -0.0338 0.9988 -0.0341
vn -0.0440 0.9989 -0.0175
vn -0.0000 0.9995 -0.0319
vn -0.0000 0.9999 -0.0160
vn -0.0959 0.9947 -0.0381
vn -0.0877 0.9960 -0.0182
vn 0.0000 0.9995 -0.0319
vn 0.0000 0.9999 -0.0160
vn 0.0660 0.9962 0.0574
vn 0.0623 0.9916 0.1136
vn 0.1430 0.9819 0.1242
vn 0.1309 0.9898 0.0562
vn 0.1319 0.9911 -0.0184
vn 0.0662 0.9977 -0.0175
vn 0.1440 0.9889 -0.0379
vn 0.0424 0.9985 -0.0338
# 32 vertex normals

vt 0.0020 0.0010 0.0000
vt 0.0005 0.0010 0.0000
vt 0.0009 0.0004 0.0000
vt 0.0020 0.0003 0.0000
vt 0.0042 0.0003 0.0000
vt 0.0042 0.0010 0.0000
vt 0.0020 0.0020 0.0000
vt 0.0042 0.0020 0.0000
vt 0.0005 0.0020 0.0000
vt 0.9987 0.0030 0.0000
vt 0.9997 0.0020 0.0000
vt 0.9997 0.0030 0.0000
vt 0.9987 0.0020 0.0000
vt 0.9987 0.1268 0.0000
vt 0.9997 0.1268 0.0000
vt 0.9975 0.1268 0.0000
vt 0.9975 0.0030 0.0000
vt 0.9975 0.0020 0.0000
vt 0.0071 0.0010 0.0000
vt 0.0071 0.0003 0.0000
vt 0.1326 0.0003 0.0000
vt 0.1326 0.0010 0.0000
vt 0.0071 0.0020 0.0000
vt 0.1326 0.0020 0.0000
vt 0.0020 0.9992 0.0000
vt 0.0020 0.9967 0.0000
vt 0.0042 0.9992 0.0000
vt 0.0042 0.9967 0.0000
vt 0.0009 0.9985 0.0000
vt 0.0005 0.9967 0.0000
vt 0.0005 0.9936 0.0000
vt 0.0020 0.9936 0.0000
vt 0.0042 0.9936 0.0000
vt 0.9964 0.9992 0.0000
vt 0.9975 0.9967 0.0000
vt 0.9975 0.9992 0.0000
vt 0.9964 0.9967 0.0000
vt 0.8725 0.9992 0.0000
vt 0.8725 0.9967 0.0000
vt 0.8725 0.9936 0.0000
vt 0.9964 0.9936 0.0000
vt 0.9975 0.9936 0.0000
vt 0.9987 0.0010 0.0000
vt 0.9975 0.0010 0.0000
vt 0.9975 0.0002 0.0000
vt 0.9987 0.0002 0.0000
vt 0.9994 0.0004 0.0000
vt 0.9997 0.0010 0.0000
vt 0.9964 0.0010 0.0000
vt 0.8725 0.0010 0.0000
vt 0.8725 0.0002 0.0000
vt 0.9964 0.0002 0.0000
vt 0.9964 0.0020 0.0000
vt 0.8725 0.0020 0.0000
vt 0.5028 0.9992 0.0000
vt 0.5028 0.9967 0.0000
vt 0.1326 0.9992 0.0000
vt 0.1326 0.9967 0.0000
vt 0.5028 0.9936 0.0000
vt 0.1326 0.9936 0.0000
vt 0.9987 0.4962 0.0000
vt 0.9997 0.4962 0.0000
vt 0.9987 0.8660 0.0000
vt 0.9997 0.8660 0.0000
vt 0.9975 0.8660 0.0000
vt 0.9975 0.4962 0.0000
vt 0.0020 0.1268 0.0000
vt 0.0005 0.0030 0.0000
vt 0.0020 0.0030 0.0000
vt 0.0005 0.1268 0.0000
vt 0.0042 0.0030 0.0000
vt 0.0042 0.1268 0.0000
vt 0.9964 0.1268 0.0000
vt 0.8725 0.1268 0.0000
vt 0.9964 0.0030 0.0000
vt 0.8725 0.0030 0.0000
vt 0.0071 0.1268 0.0000
vt 0.0071 0.0030 0.0000
vt 0.1326 0.0030 0.0000
vt 0.1326 0.1268 0.0000
vt 0.5028 0.0010 0.0000
vt 0.5028 0.0002 0.0000
vt 0.5028 0.0020 0.0000
vt 0.0071 0.9992 0.0000
vt 0.0071 0.9967 0.0000
vt 0.0071 0.9936 0.0000
vt 0.5028 0.0030 0.0000
vt 0.5028 0.1268 0.0000
vt 0.0005 0.9909 0.0000
vt 0.0020 0.9909 0.0000
vt 0.0005 0.8660 0.0000
vt 0.0020 0.8660 0.0000
vt 0.0042 0.8660 0.0000
vt 0.0042 0.9909 0.0000
vt 0.8725 0.9909 0.0000
vt 0.9964 0.9909 0.0000
vt 0.8725 0.8660 0.0000
vt 0.9964 0.8660 0.0000
vt 0.9975 0.9909 0.0000
vt 0.1326 0.9909 0.0000
vt 0.5028 0.9909 0.0000
vt 0.1326 0.8660 0.0000
vt 0.5028 0.8660 0.0000
vt 0.9997 0.9967 0.0000
vt 0.9987 0.9936 0.0000
vt 0.9997 0.9936 0.0000
vt 0.9987 0.9967 0.0000
vt 0.9994 0.9985 0.0000
vt 0.9987 0.9992 0.0000
vt 0.0071 0.9909 0.0000
vt 0.0071 0.8660 0.0000
vt 0.9997 0.9909 0.0000
vt 0.9987 0.9909 0.0000
vt 0.0005 0.4962 0.0000
vt 0.0020 0.4962 0.0000
vt 0.0042 0.4962 0.0000
vt 0.8725 0.4962 0.0000
vt 0.9964 0.4962 0.0000
vt 0.1326 0.4962 0.0000
vt 0.5028 0.4962 0.0000
vt 0.0071 0.4962 0.0000
# 121 texture coords

g not_clear_obj_0_v6
usemtl spec__000000_100_01_Default_wf_14_BNGL8045
s off
f 1/1/1 2/2/2 3/3/3 
f 1/1/1 3/3/3 4/4/4 
f 1/1/1 5/5/5 6/6/6 
f 5/5/5 1/1/1 4/4/4 
f 7/7/7 6/6/6 8/8/8 
f 6/6/6 7/7/7 1/1/1 
f 9/9/9 2/2/2 7/7/7 
f 7/7/7 2/2/2 1/1/1 
f 10/10/10 11/11/11 12/12/12 
f 11/11/11 10/10/10 13/13/13 
f 14/14/13 12/12/12 15/15/11 
f 12/12/12 14/14/13 10/10/10 
f 10/10/10 14/14/13 16/16/8 
f 16/16/8 17/17/8 10/10/10 
f 10/10/10 18/18/8 13/13/13 
f 18/18/8 10/10/10 17/17/8 
f 19/19/14 6/6/6 5/5/5 
f 19/19/14 5/5/5 20/20/15 
f 19/19/14 21/21/5 22/22/6 
f 21/21/5 19/19/14 20/20/15 
f 23/23/16 22/22/6 24/24/16 
f 22/22/6 23/23/16 19/19/14 
f 23/23/16 8/8/8 6/6/6 
f 23/23/16 6/6/6 19/19/14 
f 25/25/17 26/26/18 27/27/19 
f 27/27/19 26/26/18 28/28/20 
f 26/26/18 29/29/21 30/30/22 
f 29/29/21 26/26/18 25/25/17 
f 30/30/22 31/31/9 26/26/18 
f 26/26/18 31/31/9 32/32/7 
f 26/26/18 33/33/8 28/28/20 
f 33/33/8 26/26/18 32/32/7 
f 34/34/19 35/35/20 36/36/19 
f 35/35/20 34/34/19 37/37/20 
f 38/38/23 37/37/20 34/34/19 
f 37/37/20 38/38/23 39/39/24 
f 37/37/20 39/39/24 40/40/16 
f 37/37/20 40/40/16 41/41/8 
f 37/37/20 42/42/8 35/35/20 
f 42/42/8 37/37/20 41/41/8 
f 43/43/25 44/44/6 45/45/5 
f 43/43/25 45/45/5 46/46/26 
f 43/43/25 47/47/27 48/48/28 
f 47/47/27 43/43/25 46/46/26 
f 13/13/13 48/48/28 11/11/11 
f 48/48/28 13/13/13 43/43/25 
f 18/18/8 44/44/6 13/13/13 
f 13/13/13 44/44/6 43/43/25 
f 49/49/6 50/50/14 51/51/15 
f 49/49/6 51/51/15 52/52/5 
f 49/49/6 45/45/5 44/44/6 
f 45/45/5 49/49/6 52/52/5 
f 53/53/8 44/44/6 18/18/8 
f 44/44/6 53/53/8 49/49/6 
f 53/53/8 54/54/16 50/50/14 
f 53/53/8 50/50/14 49/49/6 
f 55/55/19 39/39/24 38/38/23 
f 39/39/24 55/55/19 56/56/20 
f 55/55/19 57/57/19 58/58/20 
f 55/55/19 58/58/20 56/56/20 
f 58/58/20 59/59/8 56/56/20 
f 59/59/8 58/58/20 60/60/8 
f 39/39/24 56/56/20 59/59/8 
f 39/39/24 59/59/8 40/40/16 
f 61/61/13 15/15/11 62/62/11 
f 15/15/11 61/61/13 14/14/13 
f 63/63/13 62/62/11 64/64/11 
f 62/62/11 63/63/13 61/61/13 
f 61/61/13 63/63/13 65/65/8 
f 65/65/8 66/66/8 61/61/13 
f 61/61/13 16/16/8 14/14/13 
f 16/16/8 61/61/13 66/66/8 
f 67/67/7 68/68/9 69/69/7 
f 68/68/9 67/67/7 70/70/9 
f 69/69/7 9/9/9 7/7/7 
f 9/9/9 69/69/7 68/68/9 
f 69/69/7 8/8/8 71/71/8 
f 8/8/8 69/69/7 7/7/7 
f 72/72/8 69/69/7 71/71/8 
f 69/69/7 72/72/8 67/67/7 
f 73/73/8 74/74/8 75/75/8 
f 74/74/8 76/76/8 75/75/8 
f 54/54/16 75/75/8 76/76/8 
f 75/75/8 54/54/16 53/53/8 
f 75/75/8 18/18/8 17/17/8 
f 18/18/8 75/75/8 53/53/8 
f 73/73/8 17/17/8 16/16/8 
f 17/17/8 73/73/8 75/75/8 
f 77/77/16 71/71/8 78/78/16 
f 71/71/8 77/77/16 72/72/8 
f 8/8/8 78/78/16 71/71/8 
f 78/78/16 8/8/8 23/23/16 
f 78/78/16 24/24/16 79/79/16 
f 24/24/16 78/78/16 23/23/16 
f 80/80/16 78/78/16 79/79/16 
f 78/78/16 80/80/16 77/77/16 
f 81/81/14 22/22/6 21/21/5 
f 81/81/14 21/21/5 82/82/5 
f 81/81/14 51/51/15 50/50/14 
f 51/51/15 81/81/14 82/82/5 
f 83/83/16 50/50/14 54/54/16 
f 50/50/14 83/83/16 81/81/14 
f 83/83/16 24/24/16 22/22/6 
f 83/83/16 22/22/6 81/81/14 
f 57/57/19 84/84/23 85/85/24 
f 57/57/19 85/85/24 58/58/20 
f 27/27/19 28/28/20 84/84/23 
f 84/84/23 28/28/20 85/85/24 
f 85/85/24 28/28/20 33/33/8 
f 85/85/24 33/33/8 86/86/16 
f 85/85/24 60/60/8 58/58/20 
f 60/60/8 85/85/24 86/86/16 
f 87/87/16 79/79/16 24/24/16 
f 87/87/16 24/24/16 83/83/16 
f 76/76/8 87/87/16 83/83/16 
f 76/76/8 83/83/16 54/54/16 
f 88/88/8 76/76/8 74/74/8 
f 76/76/8 88/88/8 87/87/16 
f 88/88/8 80/80/16 79/79/16 
f 88/88/8 79/79/16 87/87/16 
f 32/32/7 89/89/9 90/90/7 
f 89/89/9 32/32/7 31/31/9 
f 90/90/7 91/91/9 92/92/7 
f 91/91/9 90/90/7 89/89/9 
f 90/90/7 93/93/8 94/94/8 
f 93/93/8 90/90/7 92/92/7 
f 32/32/7 94/94/8 33/33/8 
f 94/94/8 32/32/7 90/90/7 
f 95/95/16 96/96/8 40/40/16 
f 41/41/8 40/40/16 96/96/8 
f 96/96/8 97/97/16 98/98/16 
f 97/97/16 96/96/8 95/95/16 
f 99/99/8 98/98/16 65/65/8 
f 98/98/16 99/99/8 96/96/8 
f 41/41/8 99/99/8 42/42/8 
f 99/99/8 41/41/8 96/96/8 
f 100/100/16 101/101/16 60/60/8 
f 59/59/8 60/60/8 101/101/16 
f 102/102/16 101/101/16 100/100/16 
f 101/101/16 102/102/16 103/103/16 
f 101/101/16 97/97/16 95/95/16 
f 97/97/16 101/101/16 103/103/16 
f 59/59/8 95/95/16 40/40/16 
f 95/95/16 59/59/8 101/101/16 
f 104/104/29 105/105/13 106/106/11 
f 105/105/13 104/104/29 107/107/30 
f 107/107/30 108/108/31 109/109/32 
f 108/108/31 107/107/30 104/104/29 
f 107/107/30 109/109/32 36/36/19 
f 36/36/19 35/35/20 107/107/30 
f 107/107/30 42/42/8 105/105/13 
f 42/42/8 107/107/30 35/35/20 
f 86/86/16 94/94/8 110/110/16 
f 94/94/8 86/86/16 33/33/8 
f 110/110/16 93/93/8 111/111/16 
f 93/93/8 110/110/16 94/94/8 
f 110/110/16 102/102/16 100/100/16 
f 102/102/16 110/110/16 111/111/16 
f 86/86/16 100/100/16 60/60/8 
f 100/100/16 86/86/16 110/110/16 
f 112/112/11 63/63/13 64/64/11 
f 63/63/13 112/112/11 113/113/13 
f 105/105/13 112/112/11 106/106/11 
f 112/112/11 105/105/13 113/113/13 
f 105/105/13 99/99/8 113/113/13 
f 99/99/8 105/105/13 42/42/8 
f 113/113/13 65/65/8 63/63/13 
f 65/65/8 113/113/13 99/99/8 
f 92/92/7 114/114/9 115/115/7 
f 114/114/9 92/92/7 91/91/9 
f 67/67/7 115/115/7 114/114/9 
f 114/114/9 70/70/9 67/67/7 
f 115/115/7 72/72/8 116/116/8 
f 72/72/8 115/115/7 67/67/7 
f 92/92/7 116/116/8 93/93/8 
f 116/116/8 92/92/7 115/115/7 
f 98/98/16 117/117/16 118/118/16 
f 117/117/16 98/98/16 97/97/16 
f 118/118/16 74/74/8 73/73/8 
f 74/74/8 118/118/16 117/117/16 
f 66/66/8 73/73/8 16/16/8 
f 73/73/8 66/66/8 118/118/16 
f 98/98/16 66/66/8 65/65/8 
f 66/66/8 98/98/16 118/118/16 
f 103/103/16 119/119/16 120/120/16 
f 119/119/16 103/103/16 102/102/16 
f 120/120/16 80/80/16 88/88/8 
f 80/80/16 120/120/16 119/119/16 
f 117/117/16 88/88/8 74/74/8 
f 88/88/8 117/117/16 120/120/16 
f 103/103/16 117/117/16 97/97/16 
f 117/117/16 103/103/16 120/120/16 
f 111/111/16 116/116/8 121/121/16 
f 116/116/8 111/111/16 93/93/8 
f 77/77/16 121/121/16 116/116/8 
f 116/116/8 72/72/8 77/77/16 
f 121/121/16 80/80/16 119/119/16 
f 80/80/16 121/121/16 77/77/16 
f 111/111/16 119/119/16 102/102/16 
f 119/119/16 111/111/16 121/121/16 
# 0 polygons - 200 triangles

#
# object shadow_plane_v6
#

v  -79.9240 0.0000 79.9240
v  -159.8480 0.0000 79.9240
v  -159.8480 0.0000 159.8480
v  -79.9240 0.0000 159.8480
v  0.0000 0.0000 79.9240
v  0.0000 0.0000 159.8480
v  79.9240 0.0000 79.9240
v  79.9240 0.0000 159.8480
v  159.8480 0.0000 79.9240
v  159.8480 0.0000 159.8480
v  -79.9240 0.0000 -0.0000
v  -159.8480 0.0000 -0.0000
v  0.0000 0.0000 -0.0000
v  79.9240 0.0000 -0.0000
v  159.8480 0.0000 -0.0000
v  -79.9240 0.0000 -79.9240
v  -159.8480 0.0000 -79.9240
v  0.0000 0.0000 -79.9240
v  79.9240 0.0000 -79.9240
v  159.8480 0.0000 -79.9240
v  -79.9240 0.0000 -159.8480
v  -159.8480 0.0000 -159.8480
v  0.0000 0.0000 -159.8480
v  79.9240 0.0000 -159.8480
v  159.8480 0.0000 -159.8480
# 25 vertices

vn 0.0000 1.0000 -0.0000
# 1 vertex normals

vt 0.2500 0.2500 0.0000
vt 0.0000 0.2500 0.0000
vt 0.0000 0.0000 0.0000
vt 0.2500 0.0000 0.0000
vt 0.5000 0.2500 0.0000
vt 0.5000 0.0000 0.0000
vt 0.7500 0.2500 0.0000
vt 0.7500 0.0000 0.0000
vt 1.0000 0.2500 0.0000
vt 1.0000 0.0000 0.0000
vt 0.2500 0.5000 0.0000
vt 0.0000 0.5000 0.0000
vt 0.5000 0.5000 0.0000
vt 0.7500 0.5000 0.0000
vt 1.0000 0.5000 0.0000
vt 0.2500 0.7500 0.0000
vt 0.0000 0.7500 0.0000
vt 0.5000 0.7500 0.0000
vt 0.7500 0.7500 0.0000
vt 1.0000 0.7500 0.0000
vt 0.2500 1.0000 0.0000
vt 0.0000 1.0000 0.0000
vt 0.5000 1.0000 0.0000
vt 0.7500 1.0000 0.0000
vt 1.0000 1.0000 0.0000
# 25 texture coords

g shadow_plane_v6
usemtl shadow_mtl_BNGL8045
s off
f 122/122/33 123/123/33 124/124/33 
f 122/122/33 124/124/33 125/125/33 
f 126/126/33 122/122/33 125/125/33 
f 126/126/33 125/125/33 127/127/33 
f 128/128/33 126/126/33 127/127/33 
f 128/128/33 127/127/33 129/129/33 
f 130/130/33 128/128/33 129/129/33 
f 130/130/33 129/129/33 131/131/33 
f 132/132/33 133/133/33 123/123/33 
f 132/132/33 123/123/33 122/122/33 
f 134/134/33 132/132/33 122/122/33 
f 134/134/33 122/122/33 126/126/33 
f 135/135/33 134/134/33 126/126/33 
f 135/135/33 126/126/33 128/128/33 
f 136/136/33 135/135/33 128/128/33 
f 136/136/33 128/128/33 130/130/33 
f 137/137/33 138/138/33 133/133/33 
f 137/137/33 133/133/33 132/132/33 
f 139/139/33 137/137/33 132/132/33 
f 139/139/33 132/132/33 134/134/33 
f 140/140/33 139/139/33 134/134/33 
f 140/140/33 134/134/33 135/135/33 
f 141/141/33 140/140/33 135/135/33 
f 141/141/33 135/135/33 136/136/33 
f 142/142/33 143/143/33 138/138/33 
f 142/142/33 138/138/33 137/137/33 
f 144/144/33 142/142/33 137/137/33 
f 144/144/33 137/137/33 139/139/33 
f 145/145/33 144/144/33 139/139/33 
f 145/145/33 139/139/33 140/140/33 
f 146/146/33 145/145/33 140/140/33 
f 146/146/33 140/140/33 141/141/33 
# 0 polygons - 32 triangles

